<?xml version="1.0" encoding="UTF-8"?>
<!DOCTYPE svg PUBLIC "-//W3C//DTD SVG 1.1//EN"
    "http://www.w3.org/Graphics/SVG/1.1/DTD/svg11.dtd"><svg xmlns="http://www.w3.org/2000/svg" height="140.0000" stroke-opacity="1" viewBox="0.0 0.0 400.0 140.0" font-size="1" width="400.0000" xmlns:xlink="http://www.w3.org/1999/xlink" stroke="rgb(0,0,0)" version="1.1"><defs></defs><g stroke-linejoin="miter" stroke-opacity="1.0" fill-opacity="1.0" stroke="rgb(0,0,0)" stroke-width="0.56" fill="rgb(192,192,192)" stroke-linecap="butt" stroke-miterlimit="10.0"><path d="M 270.0000,116.6667 c 0.0000,-12.8866 -10.4467,-23.3333 -23.3333 -23.3333c -12.8866,-0.0000 -23.3333,10.4467 -23.3333 23.3333c -0.0000,12.8866 10.4467,23.3333 23.3333 23.3333c 12.8866,0.0000 23.3333,-10.4467 23.3333 -23.3333Z"/></g><g stroke-linejoin="miter" stroke-opacity="1.0" fill-opacity="1.0" font-size="17.5px" stroke="rgb(0,0,0)" stroke-width="0.56" fill="rgb(0,0,0)" stroke-linecap="butt" font-family="serif" stroke-miterlimit="10.0"><text dominant-baseline="middle" transform="matrix(1.0000,0.0000,0.0000,1.0000,246.6667,116.6667)" stroke="none" text-anchor="middle">H</text></g><g stroke-linejoin="miter" stroke-opacity="1.0" fill-opacity="1.0" stroke="rgb(0,0,0)" stroke-width="0.56" fill="rgb(192,192,192)" stroke-linecap="butt" stroke-miterlimit="10.0"><path d="M 176.6667,116.6667 c 0.0000,-12.8866 -10.4467,-23.3333 -23.3333 -23.3333c -12.8866,-0.0000 -23.3333,10.4467 -23.3333 23.3333c -0.0000,12.8866 10.4467,23.3333 23.3333 23.3333c 12.8866,0.0000 23.3333,-10.4467 23.3333 -23.3333Z"/></g><g stroke-linejoin="miter" stroke-opacity="1.0" fill-opacity="1.0" font-size="17.5px" stroke="rgb(0,0,0)" stroke-width="0.56" fill="rgb(0,0,0)" stroke-linecap="butt" font-family="serif" stroke-miterlimit="10.0"><text dominant-baseline="middle" transform="matrix(1.0000,0.0000,0.0000,1.0000,153.3333,116.6667)" stroke="none" text-anchor="middle">G</text></g><g stroke-linejoin="miter" stroke-opacity="1.0" fill-opacity="1.0" stroke="rgb(0,0,0)" stroke-width="0.56" fill="rgb(192,192,192)" stroke-linecap="butt" stroke-miterlimit="10.0"><path d="M 223.3333,23.3333 c 0.0000,-12.8866 -10.4467,-23.3333 -23.3333 -23.3333c -12.8866,-0.0000 -23.3333,10.4467 -23.3333 23.3333c -0.0000,12.8866 10.4467,23.3333 23.3333 23.3333c 12.8866,0.0000 23.3333,-10.4467 23.3333 -23.3333Z"/></g><g stroke-linejoin="miter" stroke-opacity="1.0" fill-opacity="1.0" font-size="17.5px" stroke="rgb(0,0,0)" stroke-width="0.56" fill="rgb(0,0,0)" stroke-linecap="butt" font-family="serif" stroke-miterlimit="10.0"><text dominant-baseline="middle" transform="matrix(1.0000,0.0000,0.0000,1.0000,200.0000,23.3333)" stroke="none" text-anchor="middle">P</text></g><g stroke-linejoin="miter" stroke-opacity="1.0" fill-opacity="0.0" stroke="rgb(0,0,0)" stroke-width="0.56" fill="rgb(0,0,0)" stroke-linecap="butt" stroke-miterlimit="10.0"><path d="M 189.5627,44.2079 l -23.6008,47.2016 "/></g><g stroke-linejoin="miter" stroke-opacity="1.0" fill-opacity="1.0" stroke="rgb(0,0,0)" stroke-width="0.0" fill="rgb(0,0,0)" stroke-linecap="butt" stroke-miterlimit="10.0"></g><g stroke-linejoin="miter" stroke-opacity="1.0" fill-opacity="1.0" stroke="rgb(0,0,0)" stroke-width="0.0" fill="rgb(0,0,0)" stroke-linecap="butt" stroke-miterlimit="10.0"></g><g stroke-linejoin="miter" stroke-opacity="1.0" fill-opacity="1.0" stroke="rgb(0,0,0)" stroke-width="0.0" fill="rgb(0,0,0)" stroke-linecap="butt" stroke-miterlimit="10.0"><path d="M 163.7706,95.7921 l 4.2292,-4.2939 l -2.1037,0.0429 l -1.2279,-1.7087 Z"/></g><g stroke-linejoin="miter" stroke-opacity="1.0" fill-opacity="1.0" stroke="rgb(0,0,0)" stroke-width="0.0" fill="rgb(0,0,0)" stroke-linecap="butt" stroke-miterlimit="10.0"><path d="M 165.8961,91.5411 l 0.0658,-0.1317 l 0.2504,0.1252 l -0.3163,0.0064 l 0.0658,-0.1317 l -0.2504,-0.1252 Z"/></g><g stroke-linejoin="miter" stroke-opacity="1.0" fill-opacity="0.0" stroke="rgb(0,0,0)" stroke-width="0.56" fill="rgb(0,0,0)" stroke-linecap="butt" stroke-miterlimit="10.0"><path d="M 210.4373,44.2079 l 23.6008,47.2016 "/></g><g stroke-linejoin="miter" stroke-opacity="1.0" fill-opacity="1.0" stroke="rgb(0,0,0)" stroke-width="0.0" fill="rgb(0,0,0)" stroke-linecap="butt" stroke-miterlimit="10.0"></g><g stroke-linejoin="miter" stroke-opacity="1.0" fill-opacity="1.0" stroke="rgb(0,0,0)" stroke-width="0.0" fill="rgb(0,0,0)" stroke-linecap="butt" stroke-miterlimit="10.0"></g><g stroke-linejoin="miter" stroke-opacity="1.0" fill-opacity="1.0" stroke="rgb(0,0,0)" stroke-width="0.0" fill="rgb(0,0,0)" stroke-linecap="butt" stroke-miterlimit="10.0"><path d="M 236.2294,95.7921 l -0.8976,-5.9597 l -1.2279,1.7087 l -2.1037,-0.0429 Z"/></g><g stroke-linejoin="miter" stroke-opacity="1.0" fill-opacity="1.0" stroke="rgb(0,0,0)" stroke-width="0.0" fill="rgb(0,0,0)" stroke-linecap="butt" stroke-miterlimit="10.0"><path d="M 234.1039,91.5411 l -0.0658,-0.1317 l 0.2504,-0.1252 l -0.1846,0.2569 l -0.0658,-0.1317 l -0.2504,0.1252 Z"/></g></svg>