<?xml version="1.0" encoding="UTF-8"?>
<!DOCTYPE svg PUBLIC "-//W3C//DTD SVG 1.1//EN"
    "http://www.w3.org/Graphics/SVG/1.1/DTD/svg11.dtd"><svg xmlns="http://www.w3.org/2000/svg" height="140.0000" stroke-opacity="1" viewBox="0.0 0.0 400.0 140.0" font-size="1" width="400.0000" xmlns:xlink="http://www.w3.org/1999/xlink" stroke="rgb(0,0,0)" version="1.1"><defs></defs><g stroke-linejoin="miter" stroke-opacity="1.0" fill-opacity="1.0" stroke="rgb(0,0,0)" stroke-width="0.8755850338290463" fill="rgb(192,192,192)" stroke-linecap="butt" stroke-miterlimit="10.0"><path d="M 400.0000,58.5915 c 0.0000,-13.3887 -10.8537,-24.2424 -24.2424 -24.2424c -13.3887,-0.0000 -24.2424,10.8537 -24.2424 24.2424c -0.0000,13.3887 10.8537,24.2424 24.2424 24.2424c 13.3887,0.0000 24.2424,-10.8537 24.2424 -24.2424Z"/></g><g stroke-linejoin="miter" stroke-opacity="1.0" fill-opacity="1.0" font-size="18.18181818181818px" stroke="rgb(0,0,0)" stroke-width="0.8755850338290463" fill="rgb(0,0,0)" stroke-linecap="butt" font-family="serif" stroke-miterlimit="10.0"><text dominant-baseline="middle" transform="matrix(1.0000,0.0000,0.0000,1.0000,375.7576,58.5915)" stroke="none" text-anchor="middle">n</text></g><g stroke-linejoin="miter" stroke-opacity="1.0" fill-opacity="1.0" font-size="18.18181818181818px" stroke="rgb(0,0,0)" stroke-width="0.8755850338290463" fill="rgb(0,0,0)" stroke-linecap="butt" font-family="serif" stroke-miterlimit="10.0"><text dominant-baseline="middle" transform="matrix(1.0000,0.0000,0.0000,1.0000,296.9697,58.5915)" stroke="none" text-anchor="middle">...</text></g><g stroke-linejoin="miter" stroke-opacity="1.0" fill-opacity="1.0" stroke="rgb(0,0,0)" stroke-width="0.8755850338290463" fill="rgb(192,192,192)" stroke-linecap="butt" stroke-miterlimit="10.0"><path d="M 242.4242,58.5915 c 0.0000,-13.3887 -10.8537,-24.2424 -24.2424 -24.2424c -13.3887,-0.0000 -24.2424,10.8537 -24.2424 24.2424c -0.0000,13.3887 10.8537,24.2424 24.2424 24.2424c 13.3887,0.0000 24.2424,-10.8537 24.2424 -24.2424Z"/></g><g stroke-linejoin="miter" stroke-opacity="1.0" fill-opacity="1.0" font-size="18.18181818181818px" stroke="rgb(0,0,0)" stroke-width="0.8755850338290463" fill="rgb(0,0,0)" stroke-linecap="butt" font-family="serif" stroke-miterlimit="10.0"><text dominant-baseline="middle" transform="matrix(1.0000,0.0000,0.0000,1.0000,218.1818,58.5915)" stroke="none" text-anchor="middle">3</text></g><g stroke-linejoin="miter" stroke-opacity="1.0" fill-opacity="1.0" stroke="rgb(0,0,0)" stroke-width="0.8755850338290463" fill="rgb(192,192,192)" stroke-linecap="butt" stroke-miterlimit="10.0"><path d="M 145.4545,58.5915 c 0.0000,-13.3887 -10.8537,-24.2424 -24.2424 -24.2424c -13.3887,-0.0000 -24.2424,10.8537 -24.2424 24.2424c -0.0000,13.3887 10.8537,24.2424 24.2424 24.2424c 13.3887,0.0000 24.2424,-10.8537 24.2424 -24.2424Z"/></g><g stroke-linejoin="miter" stroke-opacity="1.0" fill-opacity="1.0" font-size="18.18181818181818px" stroke="rgb(0,0,0)" stroke-width="0.8755850338290463" fill="rgb(0,0,0)" stroke-linecap="butt" font-family="serif" stroke-miterlimit="10.0"><text dominant-baseline="middle" transform="matrix(1.0000,0.0000,0.0000,1.0000,121.2121,58.5915)" stroke="none" text-anchor="middle">2</text></g><g stroke-linejoin="miter" stroke-opacity="1.0" fill-opacity="1.0" stroke="rgb(0,0,0)" stroke-width="0.8755850338290463" fill="rgb(192,192,192)" stroke-linecap="butt" stroke-miterlimit="10.0"><path d="M 48.4848,58.5915 c 0.0000,-13.3887 -10.8537,-24.2424 -24.2424 -24.2424c -13.3887,-0.0000 -24.2424,10.8537 -24.2424 24.2424c -0.0000,13.3887 10.8537,24.2424 24.2424 24.2424c 13.3887,0.0000 24.2424,-10.8537 24.2424 -24.2424Z"/></g><g stroke-linejoin="miter" stroke-opacity="1.0" fill-opacity="1.0" font-size="18.18181818181818px" stroke="rgb(0,0,0)" stroke-width="0.8755850338290463" fill="rgb(0,0,0)" stroke-linecap="butt" font-family="serif" stroke-miterlimit="10.0"><text dominant-baseline="middle" transform="matrix(1.0000,0.0000,0.0000,1.0000,24.2424,58.5915)" stroke="none" text-anchor="middle">1</text></g><g stroke-linejoin="miter" stroke-opacity="1.0" fill-opacity="0.0" stroke="rgb(0,0,0)" stroke-width="0.8755850338290463" fill="rgb(0,0,0)" stroke-linecap="butt" stroke-miterlimit="10.0"><path d="M 242.4242,58.5915 c 31.0174,-19.3911 70.0237,-20.7616 102.3255 -3.5953"/></g><g stroke-linejoin="miter" stroke-opacity="1.0" fill-opacity="1.0" stroke="rgb(0,0,0)" stroke-width="0.0" fill="rgb(0,0,0)" stroke-linecap="butt" stroke-miterlimit="10.0"></g><g stroke-linejoin="miter" stroke-opacity="1.0" fill-opacity="1.0" stroke="rgb(0,0,0)" stroke-width="0.0" fill="rgb(0,0,0)" stroke-linecap="butt" stroke-miterlimit="10.0"></g><g stroke-linejoin="miter" stroke-opacity="1.0" fill-opacity="1.0" stroke="rgb(0,0,0)" stroke-width="0.0" fill="rgb(0,0,0)" stroke-linecap="butt" stroke-miterlimit="10.0"><path d="M 351.5152,58.5915 l -6.3541,-7.7047 c 0.8733,2.8544 -0.7326,5.8763 -3.5870 6.7497l 9.9411,0.9551 Z"/></g><g stroke-linejoin="miter" stroke-opacity="1.0" fill-opacity="1.0" stroke="rgb(0,0,0)" stroke-width="0.0" fill="rgb(0,0,0)" stroke-linecap="butt" stroke-miterlimit="10.0"><path d="M 344.5443,55.3828 c 0.1577,-0.2462 0.2951,-0.5048 0.4109 -0.7732Z"/></g><g stroke-linejoin="miter" stroke-opacity="1.0" fill-opacity="0.0" stroke="rgb(0,0,0)" stroke-width="0.8755850338290463" fill="rgb(0,0,0)" stroke-linecap="butt" stroke-miterlimit="10.0"><path d="M 145.4545,58.5915 c 44.3289,-56.8234 126.3290,-66.9522 183.1524 -22.6234c 6.4694,5.0469 12.4484,10.6927 17.8576 16.8625"/></g><g stroke-linejoin="miter" stroke-opacity="1.0" fill-opacity="1.0" stroke="rgb(0,0,0)" stroke-width="0.0" fill="rgb(0,0,0)" stroke-linecap="butt" stroke-miterlimit="10.0"></g><g stroke-linejoin="miter" stroke-opacity="1.0" fill-opacity="1.0" stroke="rgb(0,0,0)" stroke-width="0.0" fill="rgb(0,0,0)" stroke-linecap="butt" stroke-miterlimit="10.0"></g><g stroke-linejoin="miter" stroke-opacity="1.0" fill-opacity="1.0" stroke="rgb(0,0,0)" stroke-width="0.0" fill="rgb(0,0,0)" stroke-linecap="butt" stroke-miterlimit="10.0"><path d="M 351.5152,58.5915 l -3.2088,-9.4573 c -0.1957,2.9786 -2.7689,5.2346 -5.7475 5.0389l 8.9563,4.4184 Z"/></g><g stroke-linejoin="miter" stroke-opacity="1.0" fill-opacity="1.0" stroke="rgb(0,0,0)" stroke-width="0.0" fill="rgb(0,0,0)" stroke-linecap="butt" stroke-miterlimit="10.0"><path d="M 346.1353,53.1193 c 0.2347,-0.1743 0.4549,-0.3673 0.6584 -0.5772Z"/></g><g stroke-linejoin="miter" stroke-opacity="1.0" fill-opacity="0.0" stroke="rgb(0,0,0)" stroke-width="0.8755850338290463" fill="rgb(0,0,0)" stroke-linecap="butt" stroke-miterlimit="10.0"><path d="M 145.4545,58.5915 c 12.2727,-8.4447 28.1183,-9.7006 41.5680 -3.2945"/></g><g stroke-linejoin="miter" stroke-opacity="1.0" fill-opacity="1.0" stroke="rgb(0,0,0)" stroke-width="0.0" fill="rgb(0,0,0)" stroke-linecap="butt" stroke-miterlimit="10.0"></g><g stroke-linejoin="miter" stroke-opacity="1.0" fill-opacity="1.0" stroke="rgb(0,0,0)" stroke-width="0.0" fill="rgb(0,0,0)" stroke-linecap="butt" stroke-miterlimit="10.0"></g><g stroke-linejoin="miter" stroke-opacity="1.0" fill-opacity="1.0" stroke="rgb(0,0,0)" stroke-width="0.0" fill="rgb(0,0,0)" stroke-linecap="butt" stroke-miterlimit="10.0"><path d="M 193.9394,58.5915 l -6.6866,-7.4180 c 0.9980,2.8133 -0.4736,5.9029 -3.2869 6.9008l 9.9735,0.5172 Z"/></g><g stroke-linejoin="miter" stroke-opacity="1.0" fill-opacity="1.0" stroke="rgb(0,0,0)" stroke-width="0.0" fill="rgb(0,0,0)" stroke-linecap="butt" stroke-miterlimit="10.0"><path d="M 186.8343,55.6923 c 0.1467,-0.2529 0.2726,-0.5172 0.3765 -0.7905Z"/></g><g stroke-linejoin="miter" stroke-opacity="1.0" fill-opacity="0.0" stroke="rgb(0,0,0)" stroke-width="0.8755850338290463" fill="rgb(0,0,0)" stroke-linecap="butt" stroke-miterlimit="10.0"><path d="M 48.4848,58.5915 c 66.4805,83.6260 188.1659,97.5252 271.7919 31.0447c 9.5209,-7.5689 18.3068,-16.0189 26.2408 -25.2378"/></g><g stroke-linejoin="miter" stroke-opacity="1.0" fill-opacity="1.0" stroke="rgb(0,0,0)" stroke-width="0.0" fill="rgb(0,0,0)" stroke-linecap="butt" stroke-miterlimit="10.0"></g><g stroke-linejoin="miter" stroke-opacity="1.0" fill-opacity="1.0" stroke="rgb(0,0,0)" stroke-width="0.0" fill="rgb(0,0,0)" stroke-linecap="butt" stroke-miterlimit="10.0"></g><g stroke-linejoin="miter" stroke-opacity="1.0" fill-opacity="1.0" stroke="rgb(0,0,0)" stroke-width="0.0" fill="rgb(0,0,0)" stroke-linecap="butt" stroke-miterlimit="10.0"><path d="M 351.5152,58.5915 l -8.9154,4.5003 c 2.9767,-0.2230 5.5705,2.0093 5.7935 4.9860l 3.1219,-9.4864 Z"/></g><g stroke-linejoin="miter" stroke-opacity="1.0" fill-opacity="1.0" stroke="rgb(0,0,0)" stroke-width="0.0" fill="rgb(0,0,0)" stroke-linecap="butt" stroke-miterlimit="10.0"><path d="M 346.8494,64.6840 c -0.2054,-0.2080 -0.4274,-0.3990 -0.6636 -0.5712Z"/></g><g stroke-linejoin="miter" stroke-opacity="1.0" fill-opacity="0.0" stroke="rgb(0,0,0)" stroke-width="0.8755850338290463" fill="rgb(0,0,0)" stroke-linecap="butt" stroke-miterlimit="10.0"><path d="M 48.4848,58.5915 c 34.8185,40.0547 95.5152,44.2996 135.5699 9.4811c 1.5191,-1.3205 2.9963,-2.6884 4.4295 -4.1017"/></g><g stroke-linejoin="miter" stroke-opacity="1.0" fill-opacity="1.0" stroke="rgb(0,0,0)" stroke-width="0.0" fill="rgb(0,0,0)" stroke-linecap="butt" stroke-miterlimit="10.0"></g><g stroke-linejoin="miter" stroke-opacity="1.0" fill-opacity="1.0" stroke="rgb(0,0,0)" stroke-width="0.0" fill="rgb(0,0,0)" stroke-linecap="butt" stroke-miterlimit="10.0"></g><g stroke-linejoin="miter" stroke-opacity="1.0" fill-opacity="1.0" stroke="rgb(0,0,0)" stroke-width="0.0" fill="rgb(0,0,0)" stroke-linecap="butt" stroke-miterlimit="10.0"><path d="M 193.9394,58.5915 l -9.2531,3.7572 c 2.9849,0.0209 5.3878,2.4576 5.3669 5.4425l 3.8862,-9.1997 Z"/></g><g stroke-linejoin="miter" stroke-opacity="1.0" fill-opacity="1.0" stroke="rgb(0,0,0)" stroke-width="0.0" fill="rgb(0,0,0)" stroke-linecap="butt" stroke-miterlimit="10.0"><path d="M 188.7916,64.2827 c -0.1877,-0.2241 -0.3933,-0.4326 -0.6148 -0.6234Z"/></g><g stroke-linejoin="miter" stroke-opacity="1.0" fill-opacity="0.0" stroke="rgb(0,0,0)" stroke-width="0.8755850338290463" fill="rgb(0,0,0)" stroke-linecap="butt" stroke-miterlimit="10.0"><path d="M 48.4848,58.5915 c 12.2727,8.4447 28.1183,9.7006 41.5680 3.2945"/></g><g stroke-linejoin="miter" stroke-opacity="1.0" fill-opacity="1.0" stroke="rgb(0,0,0)" stroke-width="0.0" fill="rgb(0,0,0)" stroke-linecap="butt" stroke-miterlimit="10.0"></g><g stroke-linejoin="miter" stroke-opacity="1.0" fill-opacity="1.0" stroke="rgb(0,0,0)" stroke-width="0.0" fill="rgb(0,0,0)" stroke-linecap="butt" stroke-miterlimit="10.0"></g><g stroke-linejoin="miter" stroke-opacity="1.0" fill-opacity="1.0" stroke="rgb(0,0,0)" stroke-width="0.0" fill="rgb(0,0,0)" stroke-linecap="butt" stroke-miterlimit="10.0"><path d="M 96.9697,58.5915 l -9.9735,0.5172 c 2.8133,0.9980 4.2848,4.0876 3.2869 6.9008l 6.6866,-7.4180 Z"/></g><g stroke-linejoin="miter" stroke-opacity="1.0" fill-opacity="1.0" stroke="rgb(0,0,0)" stroke-width="0.0" fill="rgb(0,0,0)" stroke-linecap="butt" stroke-miterlimit="10.0"><path d="M 90.2411,62.2813 c -0.1039,-0.2732 -0.2298,-0.5376 -0.3765 -0.7905Z"/></g></svg>