<?xml version="1.0" encoding="UTF-8"?>
<!DOCTYPE svg PUBLIC "-//W3C//DTD SVG 1.1//EN"
    "http://www.w3.org/Graphics/SVG/1.1/DTD/svg11.dtd"><svg xmlns="http://www.w3.org/2000/svg" height="140.0000" stroke-opacity="1" viewBox="0.0 0.0 400.0 140.0" font-size="1" width="400.0000" xmlns:xlink="http://www.w3.org/1999/xlink" stroke="rgb(0,0,0)" version="1.1"><defs></defs><g stroke-linejoin="miter" stroke-opacity="1.0" fill-opacity="1.0" stroke="rgb(0,0,0)" stroke-width="0.5828664798505173" fill="rgb(192,192,192)" stroke-linecap="butt" stroke-miterlimit="10.0"><path d="M 275.8333,116.6667 c 0.0000,-12.8866 -10.4467,-23.3333 -23.3333 -23.3333c -12.8866,-0.0000 -23.3333,10.4467 -23.3333 23.3333c -0.0000,12.8866 10.4467,23.3333 23.3333 23.3333c 12.8866,0.0000 23.3333,-10.4467 23.3333 -23.3333Z"/></g><g stroke-linejoin="miter" stroke-opacity="1.0" fill-opacity="1.0" font-size="17.5px" stroke="rgb(0,0,0)" stroke-width="0.5828664798505173" fill="rgb(0,0,0)" stroke-linecap="butt" font-family="serif" stroke-miterlimit="10.0"><text dominant-baseline="middle" transform="matrix(1.0000,0.0000,0.0000,1.0000,252.5000,116.6667)" stroke="none" text-anchor="middle">H</text></g><g stroke-linejoin="miter" stroke-opacity="1.0" fill-opacity="1.0" stroke="rgb(0,0,0)" stroke-width="0.5828664798505173" fill="rgb(192,192,192)" stroke-linecap="butt" stroke-miterlimit="10.0"><path d="M 170.8333,116.6667 c 0.0000,-12.8866 -10.4467,-23.3333 -23.3333 -23.3333c -12.8866,-0.0000 -23.3333,10.4467 -23.3333 23.3333c -0.0000,12.8866 10.4467,23.3333 23.3333 23.3333c 12.8866,0.0000 23.3333,-10.4467 23.3333 -23.3333Z"/></g><g stroke-linejoin="miter" stroke-opacity="1.0" fill-opacity="1.0" font-size="17.5px" stroke="rgb(0,0,0)" stroke-width="0.5828664798505173" fill="rgb(0,0,0)" stroke-linecap="butt" font-family="serif" stroke-miterlimit="10.0"><text dominant-baseline="middle" transform="matrix(1.0000,0.0000,0.0000,1.0000,147.5000,116.6667)" stroke="none" text-anchor="middle">G</text></g><g stroke-linejoin="miter" stroke-opacity="1.0" fill-opacity="1.0" stroke="rgb(0,0,0)" stroke-width="0.5828664798505173" fill="rgb(192,192,192)" stroke-linecap="butt" stroke-miterlimit="10.0"><path d="M 223.3333,23.3333 c 0.0000,-12.8866 -10.4467,-23.3333 -23.3333 -23.3333c -12.8866,-0.0000 -23.3333,10.4467 -23.3333 23.3333c -0.0000,12.8866 10.4467,23.3333 23.3333 23.3333c 12.8866,0.0000 23.3333,-10.4467 23.3333 -23.3333Z"/></g><g stroke-linejoin="miter" stroke-opacity="1.0" fill-opacity="1.0" font-size="17.5px" stroke="rgb(0,0,0)" stroke-width="0.5828664798505173" fill="rgb(0,0,0)" stroke-linecap="butt" font-family="serif" stroke-miterlimit="10.0"><text dominant-baseline="middle" transform="matrix(1.0000,0.0000,0.0000,1.0000,200.0000,23.3333)" stroke="none" text-anchor="middle">P</text></g><g stroke-linejoin="miter" stroke-opacity="1.0" fill-opacity="0.0" stroke="rgb(0,0,0)" stroke-width="0.5828664798505173" fill="rgb(0,0,0)" stroke-linecap="butt" stroke-miterlimit="10.0"><path d="M 188.5585,43.6737 l -27.1167,48.2075 "/></g><g stroke-linejoin="miter" stroke-opacity="1.0" fill-opacity="1.0" stroke="rgb(0,0,0)" stroke-width="0.0" fill="rgb(0,0,0)" stroke-linecap="butt" stroke-miterlimit="10.0"></g><g stroke-linejoin="miter" stroke-opacity="1.0" fill-opacity="1.0" stroke="rgb(0,0,0)" stroke-width="0.0" fill="rgb(0,0,0)" stroke-linecap="butt" stroke-miterlimit="10.0"></g><g stroke-linejoin="miter" stroke-opacity="1.0" fill-opacity="1.0" stroke="rgb(0,0,0)" stroke-width="0.0" fill="rgb(0,0,0)" stroke-linecap="butt" stroke-miterlimit="10.0"><path d="M 158.9415,96.3263 l 4.6144,-4.2494 l -2.1891,-0.0621 l -1.1899,-1.8386 Z"/></g><g stroke-linejoin="miter" stroke-opacity="1.0" fill-opacity="1.0" stroke="rgb(0,0,0)" stroke-width="0.0" fill="rgb(0,0,0)" stroke-linecap="butt" stroke-miterlimit="10.0"><path d="M 161.3667,92.0147 l 0.0751,-0.1335 l 0.2540,0.1429 l -0.3291,-0.0093 l 0.0751,-0.1335 l -0.2540,-0.1429 Z"/></g><g stroke-linejoin="miter" stroke-opacity="1.0" fill-opacity="0.0" stroke="rgb(0,0,0)" stroke-width="0.5828664798505173" fill="rgb(0,0,0)" stroke-linecap="butt" stroke-miterlimit="10.0"><path d="M 211.4415,43.6737 l 27.1167,48.2075 "/></g><g stroke-linejoin="miter" stroke-opacity="1.0" fill-opacity="1.0" stroke="rgb(0,0,0)" stroke-width="0.0" fill="rgb(0,0,0)" stroke-linecap="butt" stroke-miterlimit="10.0"></g><g stroke-linejoin="miter" stroke-opacity="1.0" fill-opacity="1.0" stroke="rgb(0,0,0)" stroke-width="0.0" fill="rgb(0,0,0)" stroke-linecap="butt" stroke-miterlimit="10.0"></g><g stroke-linejoin="miter" stroke-opacity="1.0" fill-opacity="1.0" stroke="rgb(0,0,0)" stroke-width="0.0" fill="rgb(0,0,0)" stroke-linecap="butt" stroke-miterlimit="10.0"><path d="M 241.0585,96.3263 l -1.2354,-6.1502 l -1.1899,1.8386 l -2.1891,0.0621 Z"/></g><g stroke-linejoin="miter" stroke-opacity="1.0" fill-opacity="1.0" stroke="rgb(0,0,0)" stroke-width="0.0" fill="rgb(0,0,0)" stroke-linecap="butt" stroke-miterlimit="10.0"><path d="M 238.6333,92.0147 l -0.0751,-0.1335 l 0.2540,-0.1429 l -0.1789,0.2764 l -0.0751,-0.1335 l -0.2540,0.1429 Z"/></g><g stroke-linejoin="miter" stroke-opacity="1.0" fill-opacity="0.0" stroke="rgb(255,0,0)" stroke-width="1.09287464971972" fill="rgb(0,0,0)" stroke-linecap="butt" stroke-miterlimit="10.0"><path d="M 158.9415,96.3263 c -1.0674,-19.9570 8.5932,-38.9674 25.3428 -49.8703"/></g><g stroke-linejoin="miter" stroke-opacity="1.0" fill-opacity="1.0" stroke="rgb(0,0,0)" stroke-width="0.0" fill="rgb(255,0,0)" stroke-linecap="butt" stroke-miterlimit="10.0"></g><g stroke-linejoin="miter" stroke-opacity="1.0" fill-opacity="1.0" stroke="rgb(0,0,0)" stroke-width="0.0" fill="rgb(255,0,0)" stroke-linecap="butt" stroke-miterlimit="10.0"></g><g stroke-linejoin="miter" stroke-opacity="1.0" fill-opacity="1.0" stroke="rgb(0,0,0)" stroke-width="0.0" fill="rgb(255,0,0)" stroke-linecap="butt" stroke-miterlimit="10.0"><path d="M 188.5585,43.6737 l -6.4968,1.2113 c 1.9326,0.4086 3.1680,2.3065 2.7594 4.2391l 3.7374,-5.4504 Z"/></g><g stroke-linejoin="miter" stroke-opacity="1.0" fill-opacity="1.0" stroke="rgb(0,0,0)" stroke-width="0.0" fill="rgb(255,0,0)" stroke-linecap="butt" stroke-miterlimit="10.0"><path d="M 184.5823,46.9139 c -0.1506,-0.3340 -0.3517,-0.6430 -0.5962 -0.9159Z"/></g><g stroke-linejoin="miter" stroke-opacity="1.0" fill-opacity="0.0" stroke="rgb(255,0,0)" stroke-width="1.09287464971972" fill="rgb(0,0,0)" stroke-linecap="butt" stroke-miterlimit="10.0"><path d="M 241.0585,96.3263 c -17.6095,-9.4512 -28.8392,-27.5791 -29.4589 -47.5550"/></g><g stroke-linejoin="miter" stroke-opacity="1.0" fill-opacity="1.0" stroke="rgb(0,0,0)" stroke-width="0.0" fill="rgb(255,0,0)" stroke-linecap="butt" stroke-miterlimit="10.0"></g><g stroke-linejoin="miter" stroke-opacity="1.0" fill-opacity="1.0" stroke="rgb(0,0,0)" stroke-width="0.0" fill="rgb(255,0,0)" stroke-linecap="butt" stroke-miterlimit="10.0"></g><g stroke-linejoin="miter" stroke-opacity="1.0" fill-opacity="1.0" stroke="rgb(0,0,0)" stroke-width="0.0" fill="rgb(255,0,0)" stroke-linecap="butt" stroke-miterlimit="10.0"><path d="M 211.4415,43.6737 l -2.3385,6.1811 c 1.3528,-1.4394 3.6163,-1.5096 5.0557 -0.1569l -2.7172,-6.0243 Z"/></g><g stroke-linejoin="miter" stroke-opacity="1.0" fill-opacity="1.0" stroke="rgb(0,0,0)" stroke-width="0.0" fill="rgb(255,0,0)" stroke-linecap="butt" stroke-miterlimit="10.0"><path d="M 212.1458,48.7544 c -0.3637,-0.0447 -0.7321,-0.0333 -1.0923 0.0339Z"/></g></svg>