<?xml version="1.0" encoding="UTF-8"?>
<!DOCTYPE svg PUBLIC "-//W3C//DTD SVG 1.1//EN"
    "http://www.w3.org/Graphics/SVG/1.1/DTD/svg11.dtd"><svg xmlns="http://www.w3.org/2000/svg" height="140.0000" stroke-opacity="1" viewBox="0.0 0.0 400.0 140.0" font-size="1" width="400.0000" xmlns:xlink="http://www.w3.org/1999/xlink" stroke="rgb(0,0,0)" version="1.1"><defs></defs><g stroke-linejoin="miter" stroke-opacity="1.0" fill-opacity="1.0" stroke="rgb(0,0,0)" stroke-width="0.8705553782882895" fill="rgb(192,192,192)" stroke-linecap="butt" stroke-miterlimit="10.0"><path d="M 369.1667,116.6667 c 0.0000,-12.8866 -10.4467,-23.3333 -23.3333 -23.3333c -12.8866,-0.0000 -23.3333,10.4467 -23.3333 23.3333c -0.0000,12.8866 10.4467,23.3333 23.3333 23.3333c 12.8866,0.0000 23.3333,-10.4467 23.3333 -23.3333Z"/></g><g stroke-linejoin="miter" stroke-opacity="1.0" fill-opacity="1.0" font-size="17.5px" stroke="rgb(0,0,0)" stroke-width="0.8705553782882895" fill="rgb(0,0,0)" stroke-linecap="butt" font-family="serif" stroke-miterlimit="10.0"><text dominant-baseline="middle" transform="matrix(1.0000,0.0000,0.0000,1.0000,345.8333,116.6667)" stroke="none" text-anchor="middle">H</text></g><g stroke-linejoin="miter" stroke-opacity="1.0" fill-opacity="1.0" stroke="rgb(0,0,0)" stroke-width="0.8705553782882895" fill="rgb(192,192,192)" stroke-linecap="butt" stroke-miterlimit="10.0"><path d="M 275.8333,116.6667 c 0.0000,-12.8866 -10.4467,-23.3333 -23.3333 -23.3333c -12.8866,-0.0000 -23.3333,10.4467 -23.3333 23.3333c -0.0000,12.8866 10.4467,23.3333 23.3333 23.3333c 12.8866,0.0000 23.3333,-10.4467 23.3333 -23.3333Z"/></g><g stroke-linejoin="miter" stroke-opacity="1.0" fill-opacity="1.0" font-size="17.5px" stroke="rgb(0,0,0)" stroke-width="0.8705553782882895" fill="rgb(0,0,0)" stroke-linecap="butt" font-family="serif" stroke-miterlimit="10.0"><text dominant-baseline="middle" transform="matrix(1.0000,0.0000,0.0000,1.0000,252.5000,116.6667)" stroke="none" text-anchor="middle">G</text></g><g stroke-linejoin="miter" stroke-opacity="1.0" fill-opacity="1.0" stroke="rgb(0,0,0)" stroke-width="0.8705553782882895" fill="rgb(192,192,192)" stroke-linecap="butt" stroke-miterlimit="10.0"><path d="M 322.5000,23.3333 c 0.0000,-12.8866 -10.4467,-23.3333 -23.3333 -23.3333c -12.8866,-0.0000 -23.3333,10.4467 -23.3333 23.3333c -0.0000,12.8866 10.4467,23.3333 23.3333 23.3333c 12.8866,0.0000 23.3333,-10.4467 23.3333 -23.3333Z"/></g><g stroke-linejoin="miter" stroke-opacity="1.0" fill-opacity="1.0" stroke="rgb(0,0,0)" stroke-width="0.8705553782882895" fill="rgb(173,216,230)" stroke-linecap="butt" stroke-miterlimit="10.0"><path d="M 320.7500,23.3333 c 0.0000,-11.9201 -9.6632,-21.5833 -21.5833 -21.5833c -11.9201,-0.0000 -21.5833,9.6632 -21.5833 21.5833c -0.0000,11.9201 9.6632,21.5833 21.5833 21.5833c 11.9201,0.0000 21.5833,-9.6632 21.5833 -21.5833Z"/></g><g stroke-linejoin="miter" stroke-opacity="1.0" fill-opacity="1.0" font-size="17.5px" stroke="rgb(0,0,0)" stroke-width="0.8705553782882895" fill="rgb(0,0,0)" stroke-linecap="butt" font-family="serif" stroke-miterlimit="10.0"><text dominant-baseline="middle" transform="matrix(1.0000,0.0000,0.0000,1.0000,299.1667,23.3333)" stroke="none" text-anchor="middle">P</text></g><g stroke-linejoin="miter" stroke-opacity="1.0" fill-opacity="0.0" stroke="rgb(0,0,0)" stroke-width="0.8705553782882895" fill="rgb(0,0,0)" stroke-linecap="butt" stroke-miterlimit="10.0"><path d="M 288.7294,44.2079 l -22.3855,44.7711 "/></g><g stroke-linejoin="miter" stroke-opacity="1.0" fill-opacity="1.0" stroke="rgb(0,0,0)" stroke-width="0.0" fill="rgb(0,0,0)" stroke-linecap="butt" stroke-miterlimit="10.0"></g><g stroke-linejoin="miter" stroke-opacity="1.0" fill-opacity="1.0" stroke="rgb(0,0,0)" stroke-width="0.0" fill="rgb(0,0,0)" stroke-linecap="butt" stroke-miterlimit="10.0"></g><g stroke-linejoin="miter" stroke-opacity="1.0" fill-opacity="1.0" stroke="rgb(0,0,0)" stroke-width="0.0" fill="rgb(0,0,0)" stroke-linecap="butt" stroke-miterlimit="10.0"><path d="M 262.9373,95.7921 l 6.5745,-6.6751 l -3.2703,0.0666 l -1.9089,-2.6562 Z"/></g><g stroke-linejoin="miter" stroke-opacity="1.0" fill-opacity="1.0" stroke="rgb(0,0,0)" stroke-width="0.0" fill="rgb(0,0,0)" stroke-linecap="butt" stroke-miterlimit="10.0"><path d="M 266.2415,89.1836 l 0.1023,-0.2047 l 0.3893,0.1947 l -0.4917,0.0100 l 0.1023,-0.2047 l -0.3893,-0.1947 Z"/></g><g stroke-linejoin="miter" stroke-opacity="1.0" fill-opacity="0.0" stroke="rgb(0,0,0)" stroke-width="0.8705553782882895" fill="rgb(0,0,0)" stroke-linecap="butt" stroke-miterlimit="10.0"><path d="M 309.6039,44.2079 l 22.3855,44.7711 "/></g><g stroke-linejoin="miter" stroke-opacity="1.0" fill-opacity="1.0" stroke="rgb(0,0,0)" stroke-width="0.0" fill="rgb(0,0,0)" stroke-linecap="butt" stroke-miterlimit="10.0"></g><g stroke-linejoin="miter" stroke-opacity="1.0" fill-opacity="1.0" stroke="rgb(0,0,0)" stroke-width="0.0" fill="rgb(0,0,0)" stroke-linecap="butt" stroke-miterlimit="10.0"></g><g stroke-linejoin="miter" stroke-opacity="1.0" fill-opacity="1.0" stroke="rgb(0,0,0)" stroke-width="0.0" fill="rgb(0,0,0)" stroke-linecap="butt" stroke-miterlimit="10.0"><path d="M 335.3961,95.7921 l -1.3954,-9.2647 l -1.9089,2.6562 l -3.2703,-0.0666 Z"/></g><g stroke-linejoin="miter" stroke-opacity="1.0" fill-opacity="1.0" stroke="rgb(0,0,0)" stroke-width="0.0" fill="rgb(0,0,0)" stroke-linecap="butt" stroke-miterlimit="10.0"><path d="M 332.0918,89.1836 l -0.1023,-0.2047 l 0.3893,-0.1947 l -0.2870,0.3993 l -0.1023,-0.2047 l -0.3893,0.1947 Z"/></g><g stroke-linejoin="miter" stroke-opacity="1.0" fill-opacity="0.0" opacity="0.7" stroke="rgb(218,0,0)" stroke-width="0.5" fill="rgb(0,0,0)" stroke-dashoffset="0.0" stroke-linecap="butt" stroke-miterlimit="10.0" stroke-dasharray="1.1666666666666667,2.3333333333333335"><path d="M 257.0530,93.7773 l 22.3472,-47.0638 "/></g><g stroke-linejoin="miter" stroke-opacity="1.0" fill-opacity="1.0" opacity="0.7" stroke="rgb(0,0,0)" stroke-width="0.0" fill="rgb(218,0,0)" stroke-linecap="butt" stroke-miterlimit="10.0"></g><g stroke-linejoin="miter" stroke-opacity="1.0" fill-opacity="1.0" opacity="0.7" stroke="rgb(0,0,0)" stroke-width="0.0" fill="rgb(218,0,0)" stroke-linecap="butt" stroke-miterlimit="10.0"></g><g stroke-linejoin="miter" stroke-opacity="1.0" fill-opacity="1.0" opacity="0.7" stroke="rgb(0,0,0)" stroke-width="0.0" fill="rgb(218,0,0)" stroke-linecap="butt" stroke-miterlimit="10.0"><path d="M 282.6675,39.8325 l -7.3789,6.6674 c 2.8003,-0.9971 5.8787,0.4646 6.8758 3.2648l 0.5031,-9.9322 Z"/></g><g stroke-linejoin="miter" stroke-opacity="1.0" fill-opacity="1.0" opacity="0.7" stroke="rgb(0,0,0)" stroke-width="0.0" fill="rgb(218,0,0)" stroke-linecap="butt" stroke-miterlimit="10.0"><path d="M 279.6260,46.8208 c -0.1472,-0.0784 -0.2979,-0.1500 -0.4517 -0.2145Z"/></g><g stroke-linejoin="miter" stroke-opacity="1.0" fill-opacity="0.0" opacity="0.7" stroke="rgb(218,0,0)" stroke-width="0.5" fill="rgb(0,0,0)" stroke-dashoffset="0.0" stroke-linecap="butt" stroke-miterlimit="10.0" stroke-dasharray="1.1666666666666667,2.3333333333333335"><path d="M 315.6658,39.8325 l 22.3472,47.0638 "/></g><g stroke-linejoin="miter" stroke-opacity="1.0" fill-opacity="1.0" opacity="0.7" stroke="rgb(0,0,0)" stroke-width="0.0" fill="rgb(218,0,0)" stroke-linecap="butt" stroke-miterlimit="10.0"></g><g stroke-linejoin="miter" stroke-opacity="1.0" fill-opacity="1.0" opacity="0.7" stroke="rgb(0,0,0)" stroke-width="0.0" fill="rgb(218,0,0)" stroke-linecap="butt" stroke-miterlimit="10.0"></g><g stroke-linejoin="miter" stroke-opacity="1.0" fill-opacity="1.0" opacity="0.7" stroke="rgb(0,0,0)" stroke-width="0.0" fill="rgb(218,0,0)" stroke-linecap="butt" stroke-miterlimit="10.0"><path d="M 341.2804,93.7773 l -0.5031,-9.9322 c -0.9971,2.8003 -4.0755,4.2620 -6.8758 3.2648l 7.3789,6.6674 Z"/></g><g stroke-linejoin="miter" stroke-opacity="1.0" fill-opacity="1.0" opacity="0.7" stroke="rgb(0,0,0)" stroke-width="0.0" fill="rgb(218,0,0)" stroke-linecap="butt" stroke-miterlimit="10.0"><path d="M 337.7872,87.0035 c 0.1538,-0.0645 0.3045,-0.1360 0.4517 -0.2145Z"/></g><g stroke-linejoin="miter" stroke-opacity="1.0" fill-opacity="1.0" stroke="rgb(0,0,0)" stroke-width="0.8705553782882895" fill="rgb(192,192,192)" stroke-linecap="butt" stroke-miterlimit="10.0"><path d="M 170.8333,116.6667 c 0.0000,-12.8866 -10.4467,-23.3333 -23.3333 -23.3333c -12.8866,-0.0000 -23.3333,10.4467 -23.3333 23.3333c -0.0000,12.8866 10.4467,23.3333 23.3333 23.3333c 12.8866,0.0000 23.3333,-10.4467 23.3333 -23.3333Z"/></g><g stroke-linejoin="miter" stroke-opacity="1.0" fill-opacity="1.0" font-size="17.5px" stroke="rgb(0,0,0)" stroke-width="0.8705553782882895" fill="rgb(0,0,0)" stroke-linecap="butt" font-family="serif" stroke-miterlimit="10.0"><text dominant-baseline="middle" transform="matrix(1.0000,0.0000,0.0000,1.0000,147.5000,116.6667)" stroke="none" text-anchor="middle">H</text></g><g stroke-linejoin="miter" stroke-opacity="1.0" fill-opacity="1.0" stroke="rgb(0,0,0)" stroke-width="0.8705553782882895" fill="rgb(192,192,192)" stroke-linecap="butt" stroke-miterlimit="10.0"><path d="M 77.5000,116.6667 c 0.0000,-12.8866 -10.4467,-23.3333 -23.3333 -23.3333c -12.8866,-0.0000 -23.3333,10.4467 -23.3333 23.3333c -0.0000,12.8866 10.4467,23.3333 23.3333 23.3333c 12.8866,0.0000 23.3333,-10.4467 23.3333 -23.3333Z"/></g><g stroke-linejoin="miter" stroke-opacity="1.0" fill-opacity="1.0" font-size="17.5px" stroke="rgb(0,0,0)" stroke-width="0.8705553782882895" fill="rgb(0,0,0)" stroke-linecap="butt" font-family="serif" stroke-miterlimit="10.0"><text dominant-baseline="middle" transform="matrix(1.0000,0.0000,0.0000,1.0000,54.1667,116.6667)" stroke="none" text-anchor="middle">G</text></g><g stroke-linejoin="miter" stroke-opacity="1.0" fill-opacity="1.0" stroke="rgb(0,0,0)" stroke-width="0.8705553782882895" fill="rgb(192,192,192)" stroke-linecap="butt" stroke-miterlimit="10.0"><path d="M 124.1667,23.3333 c 0.0000,-12.8866 -10.4467,-23.3333 -23.3333 -23.3333c -12.8866,-0.0000 -23.3333,10.4467 -23.3333 23.3333c -0.0000,12.8866 10.4467,23.3333 23.3333 23.3333c 12.8866,0.0000 23.3333,-10.4467 23.3333 -23.3333Z"/></g><g stroke-linejoin="miter" stroke-opacity="1.0" fill-opacity="1.0" font-size="17.5px" stroke="rgb(0,0,0)" stroke-width="0.8705553782882895" fill="rgb(0,0,0)" stroke-linecap="butt" font-family="serif" stroke-miterlimit="10.0"><text dominant-baseline="middle" transform="matrix(1.0000,0.0000,0.0000,1.0000,100.8333,23.3333)" stroke="none" text-anchor="middle">P</text></g><g stroke-linejoin="miter" stroke-opacity="1.0" fill-opacity="0.0" stroke="rgb(0,0,0)" stroke-width="0.8705553782882895" fill="rgb(0,0,0)" stroke-linecap="butt" stroke-miterlimit="10.0"><path d="M 90.3961,44.2079 l -22.3855,44.7711 "/></g><g stroke-linejoin="miter" stroke-opacity="1.0" fill-opacity="1.0" stroke="rgb(0,0,0)" stroke-width="0.0" fill="rgb(0,0,0)" stroke-linecap="butt" stroke-miterlimit="10.0"></g><g stroke-linejoin="miter" stroke-opacity="1.0" fill-opacity="1.0" stroke="rgb(0,0,0)" stroke-width="0.0" fill="rgb(0,0,0)" stroke-linecap="butt" stroke-miterlimit="10.0"></g><g stroke-linejoin="miter" stroke-opacity="1.0" fill-opacity="1.0" stroke="rgb(0,0,0)" stroke-width="0.0" fill="rgb(0,0,0)" stroke-linecap="butt" stroke-miterlimit="10.0"><path d="M 64.6039,95.7921 l 6.5745,-6.6751 l -3.2703,0.0666 l -1.9089,-2.6562 Z"/></g><g stroke-linejoin="miter" stroke-opacity="1.0" fill-opacity="1.0" stroke="rgb(0,0,0)" stroke-width="0.0" fill="rgb(0,0,0)" stroke-linecap="butt" stroke-miterlimit="10.0"><path d="M 67.9082,89.1836 l 0.1023,-0.2047 l 0.3893,0.1947 l -0.4917,0.0100 l 0.1023,-0.2047 l -0.3893,-0.1947 Z"/></g><g stroke-linejoin="miter" stroke-opacity="1.0" fill-opacity="0.0" stroke="rgb(0,0,0)" stroke-width="0.8705553782882895" fill="rgb(0,0,0)" stroke-linecap="butt" stroke-miterlimit="10.0"><path d="M 111.2706,44.2079 l 22.3855,44.7711 "/></g><g stroke-linejoin="miter" stroke-opacity="1.0" fill-opacity="1.0" stroke="rgb(0,0,0)" stroke-width="0.0" fill="rgb(0,0,0)" stroke-linecap="butt" stroke-miterlimit="10.0"></g><g stroke-linejoin="miter" stroke-opacity="1.0" fill-opacity="1.0" stroke="rgb(0,0,0)" stroke-width="0.0" fill="rgb(0,0,0)" stroke-linecap="butt" stroke-miterlimit="10.0"></g><g stroke-linejoin="miter" stroke-opacity="1.0" fill-opacity="1.0" stroke="rgb(0,0,0)" stroke-width="0.0" fill="rgb(0,0,0)" stroke-linecap="butt" stroke-miterlimit="10.0"><path d="M 137.0627,95.7921 l -1.3954,-9.2647 l -1.9089,2.6562 l -3.2703,-0.0666 Z"/></g><g stroke-linejoin="miter" stroke-opacity="1.0" fill-opacity="1.0" stroke="rgb(0,0,0)" stroke-width="0.0" fill="rgb(0,0,0)" stroke-linecap="butt" stroke-miterlimit="10.0"><path d="M 133.7585,89.1836 l -0.1023,-0.2047 l 0.3893,-0.1947 l -0.2870,0.3993 l -0.1023,-0.2047 l -0.3893,0.1947 Z"/></g><g stroke-linejoin="miter" stroke-opacity="1.0" fill-opacity="0.0" stroke="rgb(218,0,0)" stroke-width="1.6322913342905427" fill="rgb(0,0,0)" stroke-dashoffset="0.0" stroke-linecap="butt" stroke-miterlimit="10.0" stroke-dasharray="2.3333333333333335,1.1666666666666667"><path d="M 58.7196,93.7773 l 22.3472,-47.0638 "/></g><g stroke-linejoin="miter" stroke-opacity="1.0" fill-opacity="1.0" stroke="rgb(0,0,0)" stroke-width="0.0" fill="rgb(218,0,0)" stroke-linecap="butt" stroke-miterlimit="10.0"></g><g stroke-linejoin="miter" stroke-opacity="1.0" fill-opacity="1.0" stroke="rgb(0,0,0)" stroke-width="0.0" fill="rgb(218,0,0)" stroke-linecap="butt" stroke-miterlimit="10.0"></g><g stroke-linejoin="miter" stroke-opacity="1.0" fill-opacity="1.0" stroke="rgb(0,0,0)" stroke-width="0.0" fill="rgb(218,0,0)" stroke-linecap="butt" stroke-miterlimit="10.0"><path d="M 84.3342,39.8325 l -7.3237,6.6176 c 2.7793,-0.9897 5.8347,0.4611 6.8244 3.2404l 0.4993,-9.8580 Z"/></g><g stroke-linejoin="miter" stroke-opacity="1.0" fill-opacity="1.0" stroke="rgb(0,0,0)" stroke-width="0.0" fill="rgb(218,0,0)" stroke-linecap="butt" stroke-miterlimit="10.0"><path d="M 81.8041,47.0636 c -0.4527,-0.3075 -0.9500,-0.5437 -1.4745 -0.7001Z"/></g><g stroke-linejoin="miter" stroke-opacity="1.0" fill-opacity="0.0" stroke="rgb(218,0,0)" stroke-width="1.6322913342905427" fill="rgb(0,0,0)" stroke-dashoffset="0.0" stroke-linecap="butt" stroke-miterlimit="10.0" stroke-dasharray="2.3333333333333335,1.1666666666666667"><path d="M 117.3325,39.8325 l 22.3472,47.0638 "/></g><g stroke-linejoin="miter" stroke-opacity="1.0" fill-opacity="1.0" stroke="rgb(0,0,0)" stroke-width="0.0" fill="rgb(218,0,0)" stroke-linecap="butt" stroke-miterlimit="10.0"></g><g stroke-linejoin="miter" stroke-opacity="1.0" fill-opacity="1.0" stroke="rgb(0,0,0)" stroke-width="0.0" fill="rgb(218,0,0)" stroke-linecap="butt" stroke-miterlimit="10.0"></g><g stroke-linejoin="miter" stroke-opacity="1.0" fill-opacity="1.0" stroke="rgb(0,0,0)" stroke-width="0.0" fill="rgb(218,0,0)" stroke-linecap="butt" stroke-miterlimit="10.0"><path d="M 142.9470,93.7773 l -0.4993,-9.8580 c -0.9897,2.7793 -4.0451,4.2301 -6.8244 3.2404l 7.3237,6.6176 Z"/></g><g stroke-linejoin="miter" stroke-opacity="1.0" fill-opacity="1.0" stroke="rgb(0,0,0)" stroke-width="0.0" fill="rgb(218,0,0)" stroke-linecap="butt" stroke-miterlimit="10.0"><path d="M 138.9425,87.2463 c 0.5245,-0.1565 1.0218,-0.3926 1.4745 -0.7001Z"/></g></svg>